<?xml version="1.0" encoding="UTF-8"?>
<svg width="185px" height="6.23850752px" viewBox="0 0 185 6.23850752" version="1.1" xmlns="http://www.w3.org/2000/svg" xmlns:xlink="http://www.w3.org/1999/xlink">
    <title>7C6B7484-C24B-4279-94DC-CB15B680F3DE</title>
    <g id="Page-1" stroke="none" stroke-width="1" fill="none" fill-rule="evenodd">
        <g id="Homepage---Renewed" transform="translate(-150.000000, -4920.000000)" fill="#131415" fill-rule="nonzero">
            <g id="Footer" transform="translate(0.000000, 4774.000000)">
                <g id="Title" transform="translate(150.000000, 70.000000)">
                    <path d="M70.0465758,76.1633819 C70.9644661,76.1475562 71.8823565,76.1264553 72.8002468,76.1106296 C73.1211568,76.1044752 73.4420667,76.0992 73.7629766,76.0974415 C78.8236824,76.0684278 83.8826298,76.0446892 88.9433355,76.0183131 C89.9069445,76.0130378 90.8705536,75.9963329 91.8341626,76.000729 C93.9908532,76.0077626 96.1493022,76.0358972 98.3059929,76.0517229 C101.210008,76.0728238 104.112265,76.0930455 107.01628,76.1115088 C108.059897,76.1185425 109.104392,76.1246969 110.148009,76.1290929 C110.561236,76.1317305 110.974462,76.1238177 111.387689,76.1326098 C115.772286,76.2284431 120.156882,76.3374646 124.541479,76.4412108 C126.573323,76.4904463 128.605166,76.5335274 130.636131,76.5924341 C131.761513,76.6267231 132.886896,76.6785963 134.012279,76.7216773 C138.568321,76.8975184 143.127,77.067205 147.683922,77.2527173 C148.246613,77.2755767 148.809304,77.3142617 149.371996,77.3459131 C150.497378,77.4074575 151.622761,77.4716394 152.748144,77.5305462 C152.87387,77.538459 152.999597,77.5428551 153.126202,77.5454927 C155.318061,77.602641 157.510799,77.6545141 159.702658,77.7099041 C161.367873,77.7521059 163.031329,77.7960662 164.696544,77.8373888 L165.281216,77.8479393 C166.500674,77.8725571 168.536034,77.9059669 169.791539,77.9437727 C170.434238,77.9631152 171.079575,77.9587192 171.720515,78.0141091 C171.979002,78.0369685 172.251555,78.0536734 172.47927,78.1767621 C172.633131,78.2585282 172.621701,78.5688877 172.794904,78.591747 C174.173498,78.7728633 175.571435,78.750004 176.962338,78.7675881 C177.061688,78.7693465 177.138179,78.6656003 177.23577,78.6497746 C177.576902,78.5952638 177.92243,78.5398739 178.267957,78.5600956 C178.471933,78.5715253 178.656566,78.6937348 178.855267,78.7438495 C178.945685,78.76575 179.038308,78.7772541 179.131337,78.7781385 C180.465091,78.8009979 181.300337,78.7667089 182.539137,78.8106691 C182.795865,78.8194612 183.458786,78.8546294 183.779696,78.9091401 C183.942348,78.9372747 184.115552,78.9443083 184.263258,79.0172824 C184.504161,79.1394919 184.761768,79.2704935 184.922662,79.4858988 C185.007066,79.5984371 185.040476,79.820876 184.928817,79.9052797 C183.655728,80.8653719 182.685085,80.4943473 181.113945,80.450387 C177.87626,80.3525287 174.638998,80.2411617 171.402243,80.116289 C170.426325,80.0784832 169.450407,80.0494694 168.474489,80.0002339 C166.200865,79.8868164 163.928998,79.752298 161.655373,79.6300885 C157.532779,79.4085287 153.413703,79.1430087 149.28935,78.9671677 C148.234304,78.9232074 147.178378,78.9671677 146.122453,78.9698053 C142.163391,78.9750805 138.205209,78.9742013 134.247027,78.9873894 C132.113195,78.994423 129.978485,79.0181616 127.844654,79.0313497 C126.238346,79.0401417 124.632037,79.0489338 123.025729,79.054209 C114.604701,79.0867396 106.181914,79.1192702 97.7608856,79.1474048 C96.0051126,79.1535592 94.2493396,79.1386127 92.4944458,79.157076 C91.9669226,79.1632305 91.4393994,79.1992779 90.9118762,79.2159828 C88.3076701,79.2968697 85.703464,79.3628101 83.100137,79.448093 C81.6432938,79.4964493 80.1873298,79.5623897 78.7304866,79.6186588 C76.299484,79.713613 73.8684813,79.8032919 71.4357202,79.9017629 C67.1680576,80.077604 63.6301354,80.2613579 59.2587266,80.4582999 C56.708152,80.5725966 52.7174391,80.7378872 50.0719103,80.8416334 C49.5329575,80.8636135 48.9948838,80.8820768 48.4541726,80.9005402 C46.1154864,80.981427 43.7759211,81.0596763 41.4363558,81.1423216 C40.7022194,81.1686978 39.9680829,81.1959531 39.2339465,81.2276045 C36.2861704,81.3598992 33.3393027,81.511712 30.3935371,81.6830329 C29.2338653,81.7498525 28.0768311,81.8254641 26.9189177,81.9001966 C26.2313792,81.9441569 25.5385654,81.9476737 24.8554228,82.0408694 C24.7059579,82.0610912 24.5951781,82.2140729 24.444834,82.2369322 C24.3569134,82.2492411 23.1172339,82.1868175 22.997662,82.1402196 C22.8886406,82.0980178 22.7637934,81.9722914 22.787532,81.8562363 C22.8130289,81.7419396 22.9791987,81.705013 23.0952538,81.6812745 C23.4908962,81.602146 23.8970891,81.5915955 24.2988859,81.5520313 C24.9494978,81.4860909 26.4151331,81.3638813 26.9118841,81.3278339 C28.8144844,81.1897987 30.7170846,81.0508843 32.6214433,80.9313123 C34.0598232,80.8407542 38.9649097,80.5576501 41.3932747,80.4565415 C45.4006925,80.2912509 45.7040184,80.3141102 50.0288293,80.1189266 C54.0652609,79.9351727 58.1016924,79.7364723 62.1372448,79.5439264 C63.7549826,79.4674355 65.4193182,79.7048209 66.9878205,79.3109369 C68.3242126,78.9750805 64.2359079,79.3461052 62.8590724,79.3636893 C58.1887338,79.422596 53.5201536,79.4753483 48.8506942,79.5421679 C44.7782152,79.6001955 40.7057362,79.6608607 36.6332572,79.7355931 C35.0726678,79.7637277 33.5120783,79.8129632 31.9532473,79.8516482 C30.0611975,79.9008837 28.1673892,79.9439648 26.2753394,80.0011131 C22.1694506,80.1242019 18.0635618,80.2595995 13.957673,80.386205 C11.7772439,80.4547831 9.59857309,80.5207235 7.41902313,80.5840262 C6.49058232,80.6121608 5.56126231,80.6341409 4.63194229,80.6578795 C4.15013778,80.6701884 3.66833327,80.6807388 3.18740797,80.6956853 C2.93419684,80.7044774 2.68186492,80.7132694 2.42953299,80.7238199 C2.10950226,80.737008 1.78683391,80.771297 1.46592397,80.7361288 C1.26940303,80.7165514 1.07397785,80.6872083 0.880373236,80.6482082 C0.807399195,80.6341409 0.72211628,80.6288657 0.672880782,80.5752342 C0.424944885,80.3070766 -0.0656516782,80.0644159 0.00732236251,79.7065793 C0.0820548139,79.3469844 0.610457205,79.259943 0.96389774,79.1597136 C1.57582464,78.9891478 2.22291974,78.9785973 2.85418916,78.9073817 C4.09738547,78.7667089 5.5436782,78.685822 6.77456564,78.6093311 C9.53699974,78.4377188 12.3003866,78.2818039 15.0645925,78.1415939 C22.3092443,77.7723277 30.4260677,77.3643764 37.7006124,77.071601 C45.1597903,76.7700336 50.7304351,76.5941925 57.967174,76.3743912 C58.4718379,76.3594447 58.9765017,76.3462566 59.4811656,76.3365854 C60.1801338,76.3233973 60.8808604,76.3207597 61.5798286,76.3102092 C64.4020777,76.2636113 67.2243267,76.2143758 70.0465758,76.1633819 Z M54.9945809,78.0906 C57.6102167,78.0765327 60.1906843,78.0431229 62.8063201,78.0097131 C67.0405728,77.9560816 71.3082354,77.9209134 75.5424882,77.8866243 C79.327467,77.8567314 83.0799153,77.8470601 86.8314844,77.8373888 L97.9850829,77.8092543 L109.205501,77.7811197 C106.968803,77.7723277 104.696057,77.7433139 102.45848,77.7345218 L94.092841,77.6685814 C93.0254858,77.6633062 91.9924195,77.6378092 90.9259435,77.6509973 L76.2282683,77.7248506 C75.0923351,77.7389179 73.9221128,77.735401 72.7510113,77.7512267 C70.3419888,77.7811197 67.9338454,77.8303552 65.5248229,77.8611274 C63.4938586,77.8875036 61.4980626,77.9314638 59.4679775,77.95784 C58.9510048,77.9842161 58.399743,77.9903706 57.8502397,78.0158675 C56.9209197,78.0281764 55.9915997,78.0589486 54.9945809,78.0906 L54.9945809,78.0906 Z" id="creative-underline"></path>
                </g>
            </g>
        </g>
    </g>
</svg>